<svg xmlns="http://www.w3.org/2000/svg" xmlns:xlink="http://www.w3.org/1999/xlink" version="1.1" x="0px" y="0px" viewBox="0 0 100 125" style="enable-background:new 0 0 100 100;" xml:space="preserve"><g><path d="M201.2,149.3c8.5,0,15.5-12,15.5-20.5c0-8.5-6.9-15.5-15.5-15.5c-8.5,0-15.5,6.9-15.5,15.5   C185.8,137.3,192.7,149.3,201.2,149.3z M188.3,128.7c0-7.1,5.8-12.9,12.9-12.9c7.1,0,12.9,5.8,12.9,12.9c0,3.8-1.6,8.4-4.1,12   c-2.6,3.8-5.8,6-8.8,6c-3,0-6.2-2.2-8.8-6C189.9,137.1,188.3,132.5,188.3,128.7z"/><path d="M201.2,151.8c-14.5,0-26.2,10.1-26.2,22.6s11.7,30,26.2,30c14.5,0,26.2-17.5,26.2-30S215.7,151.8,201.2,151.8z    M201.2,201.9c-3.4,0-10-1.2-16.5-9.4c-4.4-5.5-7.1-12.4-7.1-18.1c0-11.1,10.6-20.1,23.6-20.1c13,0,23.6,9,23.6,20.1   c0,5.7-2.7,12.6-7.1,18.1C211.3,200.7,204.6,201.9,201.2,201.9z"/></g><g><circle cx="50" cy="20.4" r="17.5"/><circle cx="50" cy="69.5" r="27.5"/></g><text x="0" y="115" fill="#000000" font-size="5px" font-weight="bold" font-family="'Helvetica Neue', Helvetica, Arial-Unicode, Arial, Sans-serif">Created by mikicon</text><text x="0" y="120" fill="#000000" font-size="5px" font-weight="bold" font-family="'Helvetica Neue', Helvetica, Arial-Unicode, Arial, Sans-serif">from the Noun Project</text></svg>